Coordinates
version=1
nRows=19
nColumns=24
inDegrees=yes

Units are S.I. units (second, meters, Newtons, ...)
Angles are in degrees.

endheader
time	pelvis_tilt	pelvis_list	pelvis_rotation	pelvis_tx	pelvis_ty	pelvis_tz	hip_flexion_r	hip_adduction_r	hip_rotation_r	knee_angle_r	ankle_angle_r	subtalar_angle_r	mtp_angle_r	hip_flexion_l	hip_adduction_l	hip_rotation_l	knee_angle_l	ankle_angle_l	subtalar_angle_l	mtp_angle_l	lumbar_extension	lumbar_bending	lumbar_rotation
      4.48500000	     -2.57241730	      8.91735061	     -4.34053284	      0.42215847	      1.01741283	     -0.25452519	     13.02065678	    -13.16264853	     -4.98436556	    -66.23716007	     -6.88694919	     -1.05531884	      0.00000000	     15.80655589	     11.97856704	     -4.70852338	    -14.84489956	      8.82530802	     -9.44278861	      0.00000000	     -8.97380427	    -11.78080700	     -0.35365904
      4.49000000	     -2.49768814	      8.90236426	     -4.29540728	      0.42780046	      1.01821323	     -0.25502258	     13.65326422	    -13.11336825	     -4.93467752	    -66.74921253	     -5.76025879	     -0.97708513	      0.00000000	     15.20835708	     12.07041477	     -4.52068792	    -14.53045929	      9.00838489	     -9.46593106	      0.00000000	     -9.08422922	    -11.70846502	     -0.58973999
      4.49500000	     -2.38546851	      8.91101743	     -4.22798836	      0.43349533	      1.01907791	     -0.25563122	     14.22454109	    -13.10918141	     -4.92752342	    -67.19078595	     -4.61696016	     -0.88722306	      0.00000000	     14.52225750	     12.21768817	     -4.14625267	    -14.12418821	      9.02323528	     -9.72024030	      0.00000000	     -9.22930447	    -11.65447323	     -0.85385127
      4.50000000	     -2.30920124	      8.85467158	     -4.12688106	      0.43913561	      1.01990920	     -0.25623853	     14.80557438	    -13.02909167	     -4.96130684	    -67.56033617	     -3.47373917	     -0.77608212	      0.00000000	     13.89131294	     12.28519233	     -3.84522882	    -13.76947566	      9.13543466	     -9.83518328	      0.00000000	     -9.34162214	    -11.51818272	     -1.13057567
      4.50500000	     -2.18170470	      8.82488684	     -4.01792379	      0.44481823	      1.02081632	     -0.25689286	     15.31540242	    -12.98931284	     -5.02314436	    -67.86003788	     -2.35640420	     -0.70465141	      0.00000000	     13.16071533	     12.39867661	     -3.38033031	    -13.32897368	      9.10382453	    -10.12274010	      0.00000000	     -9.50840051	    -11.41409777	     -1.42374769
      4.51000000	     -2.12584852	      8.71993389	     -3.91302844	      0.45040907	      1.02164765	     -0.25743281	     15.88817419	    -12.83417559	     -5.06305199	    -68.09411547	     -1.24922028	     -0.60185019	      0.00000000	     12.53736730	     12.39803633	     -3.06146900	    -12.96008620	      9.20788446	    -10.18034241	      0.00000000	     -9.60095255	    -11.23044733	     -1.67750580
      4.51500000	     -2.01849652	      8.64783007	     -3.75762545	      0.45610998	      1.02252192	     -0.25819265	     16.36860231	    -12.76162127	     -5.18935519	    -68.25737142	     -0.13118379	     -0.47557549	      0.00000000	     11.81997020	     12.46713254	     -2.64040706	    -12.51948334	      9.19839364	    -10.45161714	      0.00000000	     -9.73711783	    -11.05258683	     -2.00822724
      4.52000000	     -1.88532547	      8.55191932	     -3.60709957	      0.46178508	      1.02348197	     -0.25886409	     16.79987878	    -12.64991212	     -5.32927341	    -68.33290783	      0.93132428	     -0.42096558	      0.00000000	     11.05140559	     12.50027357	     -2.13639425	    -12.04318962	      9.11423964	    -10.71916392	      0.00000000	     -9.90850150	    -10.86728164	     -2.30493907
      4.52500000	     -1.76578257	      8.42536920	     -3.46163813	      0.46739430	      1.02439617	     -0.25952199	     17.23938822	    -12.49283030	     -5.45551286	    -68.35261947	      1.96204759	     -0.34420025	      0.00000000	     10.30331234	     12.48953759	     -1.65274228	    -11.57981617	      9.09306487	    -10.94095225	      0.00000000	    -10.07653940	    -10.64394022	     -2.59175190
      4.53000000	     -1.67052748	      8.27192657	     -3.30890167	      0.47301774	      1.02528865	     -0.26017795	     17.68076497	    -12.30420179	     -5.59997227	    -68.29688138	      2.97185624	     -0.24423220	      0.00000000	      9.57936128	     12.44154179	     -1.22278607	    -11.11511787	      9.06978897	    -11.13865803	      0.00000000	    -10.20452311	    -10.38515837	     -2.87863104
      4.53500000	     -1.56983150	      8.10253391	     -3.14979621	      0.47862053	      1.02618226	     -0.26084106	     18.09840238	    -12.09567893	     -5.75509131	    -68.17219749	      3.94728573	     -0.14426828	      0.00000000	      8.83843176	     12.37274837	     -0.74703521	    -10.63218883	      9.02563601	    -11.36164066	      0.00000000	    -10.34476860	    -10.10685679	     -3.16014418
      4.54000000	     -1.45636624	      7.92012457	     -2.99598805	      0.48419304	      1.02706579	     -0.26147716	     18.49182412	    -11.86848302	     -5.91791541	    -67.98487277	      4.87966774	     -0.05224975	      0.00000000	      8.07568918	     12.28345348	     -0.22964799	    -10.13342929	      8.97484026	    -11.60914041	      0.00000000	    -10.49991624	     -9.81802789	     -3.42355627
      4.54500000	     -1.37916067	      7.71445041	     -2.83279678	      0.48974886	      1.02791036	     -0.26210087	     18.90192634	    -11.60707859	     -6.08098320	    -67.72496102	      5.79421864	      0.08846327	      0.00000000	      7.36031398	     12.15848489	      0.20568506	     -9.64453832	      8.91626584	    -11.82034413	      0.00000000	    -10.61451928	     -9.49833513	     -3.69443941
      4.55000000	     -1.27837541	      7.50346697	     -2.67409887	      0.49529434	      1.02873835	     -0.26271424	     19.27555806	    -11.34144198	     -6.25682602	    -67.40534830	      6.67186001	      0.22011061	      0.00000000	      6.60231562	     12.02420368	      0.73447831	     -9.12480267	      8.84347277	    -12.10169314	      0.00000000	    -10.75370042	     -9.17543630	     -3.94423973
      4.55500000	     -1.29422633	      7.27251923	     -2.58220344	      0.50074083	      1.02938168	     -0.26311649	     19.79323431	    -10.99370943	     -6.32476812	    -67.03972181	      7.52735517	      0.38887034	      0.00000000	      6.02010313	     11.83174442	      0.99303377	     -8.67233705	      8.88734772	    -12.15773977	      0.00000000	    -10.75312912	     -8.85352323	     -4.09138371
      4.56000000	     -1.15364270	      7.05030211	     -2.33355313	      0.50630750	      1.03024330	     -0.26388368	     20.05639158	    -10.75513235	     -6.60583543	    -66.57718600	      8.37950567	      0.59688675	      0.00000000	      5.18624231	     11.69236636	      1.67360049	     -8.09674400	      8.65411477	    -12.62778683	      0.00000000	    -10.94696030	     -8.49605005	     -4.46023447
      4.56500000	     -1.06074347	      6.81817019	     -2.19906409	      0.51180972	      1.03096127	     -0.26440005	     20.40085793	    -10.44115006	     -6.75217301	    -66.07272620	      9.20530074	      0.80291042	      0.00000000	      4.42935353	     11.50882063	      2.17465698	     -7.54021394	      8.52891760	    -12.97315606	      0.00000000	    -11.06892926	     -8.15735319	     -4.66022274
      4.57000000	     -1.01714861	      6.58611412	     -2.03886625	      0.51728987	      1.03157820	     -0.26491965	     20.77969180	    -10.12666178	     -6.90768384	    -65.51307138	     10.02454003	      1.05453751	      0.00000000	      3.73934602	     11.31569084	      2.61548290	     -7.00563122	      8.42140649	    -13.26132813	      0.00000000	    -11.13845673	     -7.81760079	     -4.89927877
      4.57500000	     -0.96710010	      6.35693508	     -1.88813012	      0.52275901	      1.03215326	     -0.26540603	     21.13813625	     -9.81000029	     -7.05496461	    -64.89303203	     10.83009270	      1.32141928	      0.00000000	      3.03628261	     11.11741622	      3.07726865	     -6.45270090	      8.28744911	    -13.59225368	      0.00000000	    -11.20973349	     -7.48554315	     -5.11415161
